<?xml version="1.0" encoding="UTF-8"?>
<svg id="svg_general_colors" style="display:none;" data-name="General Colors" xmlns="http://www.w3.org/2000/svg" xmlns:xlink="http://www.w3.org/1999/xlink" viewBox="0 0 800 105">
  <defs>
    <style>
      .photoeye-off {
        fill: #f7931e;
      }
      .photoeye-on {
      fill: #39b54a;
      }
      .gv-text {
        font-family: ArialMT, Arial;
        font-size: 12px;
      }
      .gv-header {
        font-weight:bold;
      }
    </style>
  </defs>

  <g transform="translate(0 0)">
    <text class="gv-text gv-header" transform="translate(0 11)"><tspan x="0" y="0">Hamper</tspan></text>
    <g transform="translate(0 20)">
      <rect x="3" y="3" width="80" height="20" rx="2.5" ry="2.5" style="fill:#27e22b;stroke:#27e22b;stroke-width:3px;"/>
      <text class="gv-text" transform="translate(18 16)"><tspan x="0" y="0">Running</tspan></text>
    </g>
    <g transform="translate(0 50)">
      <rect x="3" y="3" width="80" height="20" rx="2.5" ry="2.5" style="fill:#ffc000;stroke:#ffc000;stroke-width:3px;"/>
      <text class="gv-text" transform="translate(18 16)"><tspan x="0" y="0">75% Full</tspan></text>
    </g>
    <g transform="translate(0 80)">
      <rect x="3" y="3" width="80" height="20" rx="2.5" ry="2.5" style="fill:#4d80ff;stroke:#4d80ff;stroke-width:3px;"/>
      <text class="gv-text" transform="translate(35 16)"><tspan x="0" y="0">Full</tspan></text>
    </g>
  </g>
  <g transform="translate(100 0)">

    <g transform="translate(0 20)">
      <rect x="3" y="3" width="80" height="20" rx="2.5" ry="2.5" style="fill:#f00;stroke:#f00;stroke-width:3px;"/>
      <text class="gv-text" transform="translate(12 16)"><tspan x="0" y="0">Jam/Faulted</tspan></text>
    </g>
    <g transform="translate(0 50)">
      <rect x="3" y="3" width="80" height="20" rx="2.5" ry="2.5" style="fill:#c55a11;stroke:#c55a11;stroke-width:3px;"/>
      <text class="gv-text" transform="translate(18 16)"><tspan x="0" y="0">Manual</tspan></text>
    </g>
    <g transform="translate(0 80)">
      <rect x="3" y="3" width="80" height="20" rx="2.5" ry="2.5" style="fill:#ccc;stroke:#ccc;stroke-width:3px;"/>
      <text class="gv-text" transform="translate(18 16)"><tspan x="0" y="0">Inactive</tspan></text>
    </g>
  </g>
  <g transform="translate(200 0)">
    <text class="gv-text gv-header" transform="translate(0 11)"><tspan x="0" y="0">Conveyor</tspan></text>
    <g transform="translate(0 20)">
      <rect x="3" y="3" width="80" height="20" rx="2.5" ry="2.5" style="fill:#fff;stroke:#27e22b;stroke-width:3px;"/>
      <text class="gv-text" transform="translate(18 16)"><tspan x="0" y="0">Running</tspan></text>
    </g>
    <g transform="translate(0 50)">
      <rect x="3" y="3" width="80" height="20" rx="2.5" ry="2.5" style="fill:#fff;stroke:#ccc;stroke-width:3px;"/>
      <text class="gv-text" transform="translate(18 16)"><tspan x="0" y="0">Stopped</tspan></text>
    </g>
    <g transform="translate(0 80)">
      <rect x="3" y="3" width="80" height="20" rx="2.5" ry="2.5" style="fill:#fff;stroke:#ff0000;stroke-width:3px;"/>
      <text class="gv-text" transform="translate(18 16)"><tspan x="0" y="0">Faulted</tspan></text>
    </g>
  </g>
  <g transform="translate(300 0)">
    <g transform="translate(0 20)">
      <rect x="3" y="3" width="80" height="20" rx="2.5" ry="2.5" style="fill:#fff;stroke:#ffc000;stroke-width:3px;"/>
      <text class="gv-text" transform="translate(18 16)"><tspan x="0" y="0">Jammed</tspan></text>
    </g>
    <g transform="translate(0 50)">
      <rect x="3" y="3" width="80" height="20" rx="2.5" ry="2.5" style="fill:#fff;stroke:#87cefa;stroke-width:3px;"/>
      <text class="gv-text" transform="translate(18 16)"><tspan x="0" y="0">Eco Mng</tspan></text>
    </g>
  </g>
  <g transform="translate(400 0)">
    <text class="gv-text gv-header" transform="translate(0 11)"><tspan x="0" y="0">Photoeye</tspan></text>
    <g transform="translate(0 27)">
      <polygon class="photoeye-off" points="12 6 0 0 0 12 12 6"/>
      <rect class="photoeye-off" x="14" y="5" width="3.2" height="3.2"/>
      <rect class="photoeye-off" x="20" y="5" width="3.2" height="3.2"/>
      <rect class="photoeye-off" x="26" y="5" width="3.2" height="3.2"/>
      <rect class="photoeye-off" x="32" y="5" width="3.2" height="3.2"/>
      <rect class="photoeye-off" x="38" y="5" width="3.2" height="3.2"/>
      <rect class="photoeye-off" x="44" y="0" width="3.6" height="12"/>
      <text  class="gv-text" x="55" y="10" >Blocked</text>
    </g>
    <g transform="translate(0 59)">
      <polygon class="photoeye-on" points="12 6 0 0 0 12 12 6"/>
      <rect class="photoeye-on" x="14" y="5" width="3.2" height="3.2"/>
      <rect class="photoeye-on" x="20" y="5" width="3.2" height="3.2"/>
      <rect class="photoeye-on" x="26" y="5" width="3.2" height="3.2"/>
      <rect class="photoeye-on" x="32" y="5" width="3.2" height="3.2"/>
      <rect class="photoeye-on" x="38" y="5" width="3.2" height="3.2"/>
      <rect class="photoeye-on" x="44" y="0" width="3.6" height="12"/>
      <text class="gv-text"  x="55" y="10" >Unblocked</text>
    </g>
  </g>
  <g transform="translate(530 0)">
    <text class="gv-text gv-header" transform="translate(0 11)"><tspan x="0" y="0">Estop</tspan></text>
    <g transform="translate(0 26)">
      <rect x="0" y="0" width="15.5" height="15.5" style="fill:#f5ea14;stroke:#000000;stroke-width:1px;"/>
      <circle cx="7.75" cy="7.75" r="5" stroke="black" stroke-width="1" fill="#00ff00" />
      <text class="gv-text" transform="translate(20 12)"><tspan x="0" y="0">Ok</tspan></text>
    </g>
    <g transform="translate(0 56)">
      <rect x="0" y="0" width="15.5" height="15.5" style="fill:#f5ea14;stroke:#000000;stroke-width:1px;"/>
      <circle cx="7.75" cy="7.75" r="5" stroke="black" stroke-width="1" fill="#ff0000" />
      <text class="gv-text" transform="translate(20 12)"><tspan x="0" y="0">Pressed</tspan></text>
    </g>

  </g>
  <g transform="translate(610 0)">
    <text class="gv-text gv-header" transform="translate(0 11)"><tspan x="0" y="0">Motor</tspan></text>
    <g transform="translate(0 25)">
      <circle cx="8.75" cy="8.75" r="7.304" stroke="black" stroke-width="1" fill="#fff" />
      <path d="M8.75,.75c-4.411,0-8,3.589-8,8s3.589,8,8,8,8-3.589,8-8-3.589-8-8-8Zm-7.304,8c0-4.028,3.277-7.305,7.304-7.305,2.014,0,3.84,.82,5.162,2.142l-10.325,10.325c-1.323-1.322-2.142-3.148-2.142-5.162Z"/>
      <text class="gv-text" transform="translate(25 12)"><tspan x="0" y="0">Stopped</tspan></text>
    </g>
    <g transform="translate(0 50)">
      <circle cx="8.75" cy="8.75" r="7.304" stroke="black" stroke-width="1" fill="#27e22b" />
      <path d="M8.75,.75c-4.411,0-8,3.589-8,8s3.589,8,8,8,8-3.589,8-8-3.589-8-8-8Zm-7.304,8c0-4.028,3.277-7.305,7.304-7.305,2.014,0,3.84,.82,5.162,2.142l-10.325,10.325c-1.323-1.322-2.142-3.148-2.142-5.162Z"/>
      <text class="gv-text" transform="translate(25 12)"><tspan x="0" y="0">Running</tspan></text>
    </g>
    <g transform="translate(0 75)">
      <circle cx="8.75" cy="8.75" r="7.304" stroke="black" stroke-width="1" fill="red" />
      <path d="M8.75,.75c-4.411,0-8,3.589-8,8s3.589,8,8,8,8-3.589,8-8-3.589-8-8-8Zm-7.304,8c0-4.028,3.277-7.305,7.304-7.305,2.014,0,3.84,.82,5.162,2.142l-10.325,10.325c-1.323-1.322-2.142-3.148-2.142-5.162Z"/>
      <text class="gv-text" transform="translate(25 12)"><tspan x="0" y="0">Faulted</tspan></text>
    </g>

  </g>
  <g transform="translate(700 0)">
    <text class="gv-text gv-header" transform="translate(0 11)"><tspan x="0" y="0">Device</tspan></text>
    <g transform="translate(0 27)">
      <rect x="0" y="0" width="19.914" height="9.863" style="fill:#27e22b"/>
      <path d="M0,0v10h20v-10h-20Zm.686,9.318v-8.636h17.94l-17.393,8.636h-.547Z"/>
      <text class="gv-text" transform="translate(25 12)"><tspan x="0" y="0">Comm Ok</tspan></text>
    </g>
    <g transform="translate(0 52)">
      <rect x="0" y="0" width="19.914" height="9.863" style="fill:#f00"/>
      <path d="M0,0v10h20v-10h-20Zm.686,9.318v-8.636h17.94l-17.393,8.636h-.547Z"/>
      <text class="gv-text" transform="translate(25 12)"><tspan x="0" y="0">Comm Nok</tspan></text>
    </g>
  </g>
</svg>