<?xml version="1.0" encoding="UTF-8"?>
<svg id="Layer_1" data-name="Layer 1" xmlns="http://www.w3.org/2000/svg" xmlns:xlink="http://www.w3.org/1999/xlink" viewBox="0 0 389 393">
  <defs>
    <style>
      .cls-1 {
        fill: #fff;
      }

      .cls-2, .cls-3 {
        opacity: .3;
        stroke: #b3b3b3;
      }

      .cls-2, .cls-3, .cls-4, .cls-5 {
        stroke-miterlimit: 10;
      }

      .cls-2, .cls-6 {
        fill: #ccc;
      }

      .cls-3, .cls-7, .cls-8 {
        fill: #e6e6e6;
      }

      .cls-4 {
        stroke: #f2f2f2;
      }

      .cls-4, .cls-5 {
        fill: none;
        stroke-width: 2px;
      }

      .cls-7 {
        opacity: .5;
      }

      .cls-9 {
        fill: #b3b3b3;
      }

      .cls-10 {
        fill: url(#linear-gradient);
      }

      .cls-5 {
        stroke: #e6e6e6;
      }

      .cls-11 {
        fill: #f2f2f2;
      }
    </style>

    <linearGradient id="linear-gradient" x1="177.341" y1="172.871" x2="175.115" y2="162.126" gradientUnits="userSpaceOnUse">
      <stop offset="0" stop-color="#666"/>
      <stop offset=".324" stop-color="gray"/>
      <stop offset=".615" stop-color="#4d4d4d"/>
    </linearGradient>
  </defs>
  <line class="cls-5" x1="373.991" y1="57.041" x2="368.533" y2="153.624"/>
  <text transform="translate(25 50)">Hamper <tspan id="bin_label">--</tspan></text>
  <g>
    <g>
      <polygon class="cls-6" points="341.239 121.541 360.511 118.41 360.022 139.345 345.054 141.204 341.239 121.541"/>
      <polygon class="cls-9" points="360.511 118.41 384.087 155.095 377.239 168.232 360.022 139.345 360.511 118.41"/>
      <polygon class="cls-8" points="345.054 141.204 363.525 172.704 377.239 168.232 360.022 139.345 345.054 141.204"/>
      <path class="cls-6" d="M363.525,159.311v13.393s24.181,.783,20.562-17.609c-6.165,1.264-20.562,4.216-20.562,4.216Z"/>
    </g>
    <polygon class="cls-8" points="341.239 121.541 360.511 118.41 384.087 155.095 363.525 159.311 341.239 121.541"/>
    <polygon class="cls-9" points="341.239 121.541 345.054 141.204 363.525 172.704 363.525 159.311 341.239 121.541"/>
  </g>

  <polygon class="cls-11" points="207.5 353.682 211.902 352.899 176.098 293.128 172.772 294.302 207.5 353.682"/>
  <polygon class="cls-11" points="57.924 351.921 384.663 288.041 386.75 291.497 61.103 356.274 57.924 351.921"/>
  <line class="cls-4" x1="73.568" y1="342.171" x2="315.431" y2="295.215"/>
  <g>
    <polygon class="cls-8" points="48.185 392.91 73.568 387.991 31.458 317.804 5.598 321.929 48.185 392.91"/>
    <path class="cls-11" d="M39.543,316.508l-8.085,1.296,42.11,70.187,6.981-1.353-41.006-70.13Zm4.13,19.402l-3.098-5.609,2.674-.652,2.935,5.543-2.511,.718Zm24.261,40.598l-3.098-5.609,2.674-.652,2.935,5.543-2.511,.717Z"/>
  </g>
  <g>
    <polygon class="cls-8" points="334.888 258.546 309.504 263.465 351.614 333.652 377.475 329.527 334.888 258.546"/>
    <path class="cls-11" d="M343.529,334.948l8.085-1.296-42.11-70.187-6.981,1.353,41.006,70.13Zm-4.13-19.402l3.098,5.609-2.674,.652-2.935-5.543,2.511-.718Zm-24.261-40.598l3.098,5.609-2.674,.652-2.935-5.543,2.511-.717Z"/>
  </g>
  <g>
    <polygon class="cls-8" points="12.201 236.543 14.696 239.967 340.441 175.157 337.946 171.733 12.201 236.543"/>
    <polygon class="cls-9" points="14.696 226.948 14.696 239.967 12.201 236.543 12.201 223.524 14.696 226.948"/>
    <polygon class="cls-9" points="340.441 162.139 340.441 175.157 337.946 171.733 337.946 158.715 340.441 162.139"/>
    <polygon class="cls-8" points="12.201 223.524 14.696 226.948 340.441 162.139 337.946 158.715 12.201 223.524"/>
  </g>
  <g>
    <polygon class="cls-8" points="9.12 294.163 11.614 297.587 337.359 232.777 334.864 229.353 9.12 294.163"/>
    <polygon class="cls-9" points="11.614 284.568 11.614 297.587 9.12 294.163 9.12 281.144 11.614 284.568"/>
    <polygon class="cls-9" points="337.359 219.758 337.359 232.777 334.865 229.353 334.865 216.334 337.359 219.758"/>
    <polygon class="cls-8" points="9.12 281.144 11.614 284.568 337.359 219.758 334.865 216.334 9.12 281.144"/>
  </g>
  <polygon class="cls-11" points="310.707 167.715 306.989 242.454 315.207 241.476 319.511 166.149 310.707 167.715"/>
  <polygon class="cls-3" points="5.598 321.929 333.513 257.879 331.75 221.649 330.9 100.084 6.883 164.364 3.25 296.454 5.598 321.929"/>
  <polygon class="cls-2" points="330.9 100.084 347.141 104.258 387.707 248.519 384.967 291.041 375.641 329.454 333.513 257.879 331.75 221.649 330.9 100.084"/>
  <g>
    <polygon class="cls-6" points="48.185 387.954 48.185 392.91 375.641 329.454 376.065 323.943 48.185 387.954"/>
    <polygon class="cls-9" points="45.614 383.594 48.185 387.954 48.185 392.91 45.614 389.78 45.614 383.594"/>
    <polygon class="cls-11" points="45.614 383.594 372.674 318.269 376.065 323.943 48.185 387.954 45.614 383.594"/>
  </g>
  <g>
    <polygon class="cls-9" points="5.598 315.743 8.169 320.103 8.169 325.06 5.598 321.929 5.598 315.743"/>
    <polygon class="cls-11" points="5.598 315.741 333.185 251.128 336.101 256.08 8.169 320.101 5.598 315.741"/>
    <polygon class="cls-6" points="8.17 320.103 8.17 325.06 335.677 261.591 336.101 256.08 8.17 320.103"/>
  </g>
  <polygon class="cls-2" points="58.728 310.233 16.106 162.534 6.883 164.364 3.25 296.454 5.598 321.929 45.614 389.78 50.109 388.899 58.033 354.465 58.728 310.233"/>
  <polygon class="cls-7" points="333.185 251.128 376.065 323.943 48.185 387.954 5.598 315.726 333.185 251.128"/>
  <g>
    <polygon class="cls-8" points="59.859 309.367 62.793 312.726 388.815 248.16 386.663 244.671 59.859 309.367"/>
    <path class="cls-6" d="M62.793,312.726v6.293l5.413-.75v.986c0,1.728,1.486,3.082,3.207,2.922h0c1.509-.14,2.663-1.407,2.663-2.922v-2.127l97.5-19.435v1.94c0,1.556,1.495,2.676,2.989,2.237h0c.993-.292,1.674-1.202,1.674-2.237v-2.592l97.467-19.239v1.457c0,1.465,1.303,2.587,2.751,2.37h0c1.174-.176,2.042-1.184,2.042-2.37v-2.305l97.565-19.011v1.014c0,1.655,1.555,2.869,3.16,2.468h0c1.132-.283,1.927-1.3,1.927-2.468v-2.058l7.663-1.663v-7.076L62.793,312.726Z"/>
    <polygon class="cls-9" points="59.859 309.367 62.793 312.726 62.793 319.019 59.859 315.595 59.859 309.367"/>
  </g>
  <path class="cls-10" d="M15.071,205.118l324.615-63.815c2.149-.422,3.19-2.882,1.997-4.719l-2.526-3.89c-.691-1.064-1.962-1.598-3.206-1.347L13.58,196.439c-1.566,.316-2.634,1.774-2.463,3.363l.282,2.614c.194,1.803,1.892,3.053,3.671,2.703Z"/>

  <g>
    <polygon class="cls-11" points="83.663 208.476 86.272 212.519 107.337 207.954 104.402 204.106 83.663 208.476"/>
    <polygon class="cls-11" points="79.995 280.895 82.603 284.939 103.668 280.373 100.734 276.526 79.995 280.895"/>
    <path class="cls-6" d="M86.272,212.519l-3.668,72.419,21.065-4.565,3.668-72.419-21.065,4.565Zm10.582,65.871l-7.777,1.547v-7.061l7.777-1.688v7.201Zm3.098-59.306l-7.777,1.547v-7.061l7.777-1.688v7.201Z"/>
  </g>
  <g>
    <polygon class="cls-11" points="246.209 176.154 248.818 180.198 269.883 175.633 266.948 171.785 246.209 176.154"/>
    <polygon class="cls-11" points="242.541 248.574 245.149 252.617 266.215 248.052 263.28 244.204 242.541 248.574"/>
    <path class="cls-6" d="M248.818,180.198l-3.668,72.419,21.065-4.565,3.668-72.419-21.065,4.565Zm10.582,65.871l-7.777,1.547v-7.061l7.777-1.688v7.201Zm3.098-59.306l-7.777,1.547v-7.061l7.777-1.688v7.201Z"/>
  </g>
  <g class="binDetails" gui-input-id="101" input-id="0" data-toggle="tooltip" data-html="true" title="" transform="translate(281.915 253.874)" active-color="#27e22b" inactive-color="#ccc">
    <circle class="cls-1 input_state" cx="6" cy="6" r="6"/>
    <path d="M10.583,2.132l.002-.002c-.012-.014-.027-.025-.039-.039-.197-.229-.409-.441-.638-.638-.012-.01-.021-.023-.033-.033h-.001c-.458-.386-.972-.708-1.533-.946l.004-.004h0c-.17-.07-.348-.135-.529-.192-.181-.058-.366-.108-.551-.147h.003s-.002,0-.003,0l-.005,.005c-.406-.087-.828-.135-1.26-.135C2.687,0,0,2.687,0,6c0,.436,.049,.859,.137,1.268l-.002,.002c.07,.37,.19,.729,.33,1.08l.009-.009c.239,.562,.563,1.079,.953,1.538h-.001c.008,.011,.019,.018,.027,.028,.6,.698,1.354,1.259,2.214,1.623h-.001c.35,.151,.71,.261,1.08,.341l.003-.003c.404,.086,.823,.133,1.252,.133,3.314,0,6-2.686,6-6,0-1.475-.534-2.823-1.417-3.868ZM.5,6C.5,2.967,2.967,.5,6,.5c.282,0,.556,.028,.827,.069L.57,6.834c-.042-.273-.07-.55-.07-.834Zm.364,1.951L7.951,.864c.574,.219,1.104,.526,1.567,.913L1.782,9.523c-.389-.465-.698-.996-.917-1.572Zm1.623,2.277L10.228,2.487c.386,.464,.693,.995,.911,1.569l-7.082,7.082c-.574-.218-1.105-.524-1.569-.911Zm3.513,1.272c-.278,0-.55-.027-.817-.067l6.25-6.25c.04,.268,.067,.539,.067,.817,0,3.033-2.467,5.5-5.5,5.5Z"/>
  </g>
  <g class="binDetails" gui-input-id="102" input-id="0" data-toggle="tooltip" data-html="true" title="" transform="translate(298.872 239.128)" active-color="#27e22b" inactive-color="#ccc">
    <circle class="cls-1 input_state" cx="6" cy="6" r="6"/>
    <path d="M10.583,2.132l.002-.002c-.012-.014-.027-.025-.039-.039-.197-.229-.409-.441-.638-.638-.012-.01-.021-.023-.033-.033h-.001c-.458-.386-.972-.708-1.533-.946l.004-.004h0c-.17-.07-.348-.135-.529-.192-.181-.058-.366-.108-.551-.147h.003s-.002,0-.003,0l-.005,.005c-.406-.087-.828-.135-1.26-.135C2.687,0,0,2.687,0,6c0,.436,.049,.859,.137,1.268l-.002,.002c.07,.37,.19,.729,.33,1.08l.009-.009c.239,.562,.563,1.079,.953,1.538h-.001c.008,.011,.019,.018,.027,.028,.6,.698,1.354,1.259,2.214,1.623h-.001c.35,.151,.71,.261,1.08,.341l.003-.003c.404,.086,.823,.133,1.252,.133,3.314,0,6-2.686,6-6,0-1.475-.534-2.823-1.417-3.868ZM.5,6C.5,2.967,2.967,.5,6,.5c.282,0,.556,.028,.827,.069L.57,6.834c-.042-.273-.07-.55-.07-.834Zm.364,1.951L7.951,.864c.574,.219,1.104,.526,1.567,.913L1.782,9.523c-.389-.465-.698-.996-.917-1.572Zm1.623,2.277L10.228,2.487c.386,.464,.693,.995,.911,1.569l-7.082,7.082c-.574-.218-1.105-.524-1.569-.911Zm3.513,1.272c-.278,0-.55-.027-.817-.067l6.25-6.25c.04,.268,.067,.539,.067,.817,0,3.033-2.467,5.5-5.5,5.5Z"/>
  </g>
  <g class="binDetails" gui-input-id="103" input-id="0" data-toggle="tooltip" data-html="true" title="" transform="translate(310.142 205.85)" active-color="#27e22b" inactive-color="#ccc">
    <circle class="cls-1 input_state" cx="6" cy="6" r="6"/>
    <path d="M10.583,2.132l.002-.002c-.012-.014-.027-.025-.039-.039-.197-.229-.409-.441-.638-.638-.012-.01-.021-.023-.033-.033h-.001c-.458-.386-.972-.708-1.533-.946l.004-.004h0c-.17-.07-.348-.135-.529-.192-.181-.058-.366-.108-.551-.147h.003s-.002,0-.003,0l-.005,.005c-.406-.087-.828-.135-1.26-.135C2.687,0,0,2.687,0,6c0,.436,.049,.859,.137,1.268l-.002,.002c.07,.37,.19,.729,.33,1.08l.009-.009c.239,.562,.563,1.079,.953,1.538h-.001c.008,.011,.019,.018,.027,.028,.6,.698,1.354,1.259,2.214,1.623h-.001c.35,.151,.71,.261,1.08,.341l.003-.003c.404,.086,.823,.133,1.252,.133,3.314,0,6-2.686,6-6,0-1.475-.534-2.823-1.417-3.868ZM.5,6C.5,2.967,2.967,.5,6,.5c.282,0,.556,.028,.827,.069L.57,6.834c-.042-.273-.07-.55-.07-.834Zm.364,1.951L7.951,.864c.574,.219,1.104,.526,1.567,.913L1.782,9.523c-.389-.465-.698-.996-.917-1.572Zm1.623,2.277L10.228,2.487c.386,.464,.693,.995,.911,1.569l-7.082,7.082c-.574-.218-1.105-.524-1.569-.911Zm3.513,1.272c-.278,0-.55-.027-.817-.067l6.25-6.25c.04,.268,.067,.539,.067,.817,0,3.033-2.467,5.5-5.5,5.5Z"/>
  </g>
  <g class="binDetails" gui-input-id="104" input-id="0" data-toggle="tooltip" data-html="true" title="" transform="translate(356.663 147.311)" active-color="#27e22b" inactive-color="#ccc">
    <circle class="cls-1 input_state" cx="6" cy="6" r="6"/>
    <path d="M10.583,2.132l.002-.002c-.012-.014-.027-.025-.039-.039-.197-.229-.409-.441-.638-.638-.012-.01-.021-.023-.033-.033h-.001c-.458-.386-.972-.708-1.533-.946l.004-.004h0c-.17-.07-.348-.135-.529-.192-.181-.058-.366-.108-.551-.147h.003s-.002,0-.003,0l-.005,.005c-.406-.087-.828-.135-1.26-.135C2.687,0,0,2.687,0,6c0,.436,.049,.859,.137,1.268l-.002,.002c.07,.37,.19,.729,.33,1.08l.009-.009c.239,.562,.563,1.079,.953,1.538h-.001c.008,.011,.019,.018,.027,.028,.6,.698,1.354,1.259,2.214,1.623h-.001c.35,.151,.71,.261,1.08,.341l.003-.003c.404,.086,.823,.133,1.252,.133,3.314,0,6-2.686,6-6,0-1.475-.534-2.823-1.417-3.868ZM.5,6C.5,2.967,2.967,.5,6,.5c.282,0,.556,.028,.827,.069L.57,6.834c-.042-.273-.07-.55-.07-.834Zm.364,1.951L7.951,.864c.574,.219,1.104,.526,1.567,.913L1.782,9.523c-.389-.465-.698-.996-.917-1.572Zm1.623,2.277L10.228,2.487c.386,.464,.693,.995,.911,1.569l-7.082,7.082c-.574-.218-1.105-.524-1.569-.911Zm3.513,1.272c-.278,0-.55-.027-.817-.067l6.25-6.25c.04,.268,.067,.539,.067,.817,0,3.033-2.467,5.5-5.5,5.5Z"/>
  </g>
  <g class="binDetails" gui-input-id="105" input-id="0" data-toggle="tooltip" data-html="true" title="" transform="translate(343.163 132.861)" active-color="#27e22b" inactive-color="#ccc">
    <circle class="cls-1 input_state" cx="6" cy="6" r="6"/>
    <path d="M10.583,2.132l.002-.002c-.012-.014-.027-.025-.039-.039-.197-.229-.409-.441-.638-.638-.012-.01-.021-.023-.033-.033h-.001c-.458-.386-.972-.708-1.533-.946l.004-.004h0c-.17-.07-.348-.135-.529-.192-.181-.058-.366-.108-.551-.147h.003s-.002,0-.003,0l-.005,.005c-.406-.087-.828-.135-1.26-.135C2.687,0,0,2.687,0,6c0,.436,.049,.859,.137,1.268l-.002,.002c.07,.37,.19,.729,.33,1.08l.009-.009c.239,.562,.563,1.079,.953,1.538h-.001c.008,.011,.019,.018,.027,.028,.6,.698,1.354,1.259,2.214,1.623h-.001c.35,.151,.71,.261,1.08,.341l.003-.003c.404,.086,.823,.133,1.252,.133,3.314,0,6-2.686,6-6,0-1.475-.534-2.823-1.417-3.868ZM.5,6C.5,2.967,2.967,.5,6,.5c.282,0,.556,.028,.827,.069L.57,6.834c-.042-.273-.07-.55-.07-.834Zm.364,1.951L7.951,.864c.574,.219,1.104,.526,1.567,.913L1.782,9.523c-.389-.465-.698-.996-.917-1.572Zm1.623,2.277L10.228,2.487c.386,.464,.693,.995,.911,1.569l-7.082,7.082c-.574-.218-1.105-.524-1.569-.911Zm3.513,1.272c-.278,0-.55-.027-.817-.067l6.25-6.25c.04,.268,.067,.539,.067,.817,0,3.033-2.467,5.5-5.5,5.5Z"/>
  </g>
  <g class="binDetails" gui-input-id="106" input-id="0" data-toggle="tooltip" data-html="true" title="" active-color="#0000FF" inactive-color="#ccc">
    <path class="cls-11 input_state" d="M367.946,44.883v13.565c0,.77,3.482,1.395,7.777,1.395s7.777-.624,7.777-1.395v-13.565h-15.554Z"/>
    <ellipse class="" cx="375.723" cy="44.883" rx="7.777" ry="1.395"/>
  </g>
  <g class="binDetails" gui-input-id="107" input-id="0" data-toggle="tooltip" data-html="true" title="" active-color="#ffc000" inactive-color="#ccc">
    <path class="cls-11 input_state" d="M367.946,30.339v13.565c0,.77,3.482,1.395,7.777,1.395s7.777-.624,7.777-1.395v-13.565h-15.554Z"/>
    <ellipse class="" cx="375.723" cy="30.339" rx="7.777" ry="1.395"/>
  </g>
  <g class="binDetails" gui-input-id="108" input-id="0" data-toggle="tooltip" data-html="true" title="" active-color="#FF0000" inactive-color="#ccc">
    <path class="cls-11 input_state" d="M367.946,15.926v13.565c0,.77,3.482,1.395,7.777,1.395s7.777-.624,7.777-1.395V15.926h-15.554Z"/>
    <ellipse class="" cx="375.723" cy="15.926" rx="7.777" ry="1.395"/>
  </g>
  <g class="binDetails" gui-input-id="109" input-id="0" data-toggle="tooltip" data-html="true" title="" active-color="darkgray" inactive-color="#ccc">
    <path class="cls-11 input_state" d="M367.946,1.664V15.229c0,.77,3.482,1.395,7.777,1.395s7.777-.624,7.777-1.395V1.664h-15.554Z"/>
    <ellipse class="" cx="375.723" cy="1.664" rx="7.777" ry="1.395"/>
  </g>
  <g class="binDetails" gui-input-id="110" input-id="0" data-toggle="tooltip" data-html="true" title="" active-color="#27e22b" inactive-color="#c55a11">
    <polygon class="cls-9 input_state" points=".185 165.693 12.837 198.563 342.446 133.345 330.9 100.084 .185 165.693"/>
  </g>
</svg>